<?xml version="1.0" encoding="utf-8"?>
<!-- Generator: Adobe Illustrator 21.0.2, SVG Export Plug-In . SVG Version: 6.00 Build 0)  -->
<svg version="1.1" id="Layer_1" xmlns="http://www.w3.org/2000/svg" xmlns:xlink="http://www.w3.org/1999/xlink" x="0px" y="0px"
	 viewBox="0 0 29 29" style="enable-background:new 0 0 29 29;" xml:space="preserve">
<style type="text/css">
	.st0{opacity:0.54;}
</style>
<g class="st0">
	<path d="M21,4.9c1.5,0,3,0.6,4,1.7c1.1,1.1,1.7,2.5,1.7,4c0,1.5-0.6,3-1.7,4L24,15.8l-9.5,9.5L5,15.8l-1.1-1.1c-1.1-1.1-1.7-2.5-1.7-4c0-1.5,0.6-3,1.7-4C5,5.5,6.4,4.9,8,4.9s3,0.6,4,1.7l1.1,1.1l1.4,1.4l1.4-1.4L17,6.6C18.1,5.5,19.5,4.9,21,4.9 M21,2.9c-2,0-3.9,0.8-5.5,2.3l-1.1,1.1l-1.1-1.1C11.9,3.7,9.9,2.9,8,2.9S4,3.7,2.5,5.2c-3,3-3,7.9,0,10.9l1.1,1.1l10.9,10.9l10.9-10.9l1.1-1.1c3-3,3-7.9,0-10.9C25,3.7,23,2.9,21,2.9L21,2.9z"/>
</g>
</svg>
